<svg width="28" height="28" viewBox="0 0 28 28" fill="none" xmlns="http://www.w3.org/2000/svg">
<path d="M25.6666 14H18.6666L16.3333 17.5H11.6666L9.33331 14H2.33331" stroke="#242424" stroke-opacity="0.75" stroke-width="2.5" stroke-linecap="round" stroke-linejoin="round"/>
<path d="M6.35831 5.96163L2.33331 14V21C2.33331 21.6188 2.57915 22.2123 3.01673 22.6499C3.45432 23.0875 4.04781 23.3333 4.66665 23.3333H23.3333C23.9522 23.3333 24.5456 23.0875 24.9832 22.6499C25.4208 22.2123 25.6666 21.6188 25.6666 21V14L21.6416 5.96163C21.4485 5.57288 21.1507 5.24573 20.7818 5.01695C20.4128 4.78818 19.9874 4.66686 19.5533 4.66663H8.44665C8.01255 4.66686 7.58712 4.78818 7.2182 5.01695C6.84928 5.24573 6.55149 5.57288 6.35831 5.96163V5.96163Z" stroke="#242424" stroke-opacity="0.75" stroke-width="2.5" stroke-linecap="round" stroke-linejoin="round"/>
</svg>
