<svg width="28" height="28" viewBox="0 0 28 28" fill="none" xmlns="http://www.w3.org/2000/svg">
<path d="M25.6667 2.33325H2.33335C2.02393 2.33325 1.72719 2.45617 1.5084 2.67496C1.2896 2.89375 1.16669 3.1905 1.16669 3.49992V12.8333C1.16669 13.1427 1.2896 13.4394 1.5084 13.6582C1.72719 13.877 2.02393 13.9999 2.33335 13.9999H5.83335V24.4999C5.83335 24.8093 5.95627 25.1061 6.17506 25.3249C6.39386 25.5437 6.6906 25.6666 7.00002 25.6666H21C21.3094 25.6666 21.6062 25.5437 21.825 25.3249C22.0438 25.1061 22.1667 24.8093 22.1667 24.4999V13.9999H25.6667C25.9761 13.9999 26.2729 13.877 26.4916 13.6582C26.7104 13.4394 26.8334 13.1427 26.8334 12.8333V3.49992C26.8334 3.1905 26.7104 2.89375 26.4916 2.67496C26.2729 2.45617 25.9761 2.33325 25.6667 2.33325ZM8.16669 23.3333V20.9999C8.78553 20.9999 9.37902 21.2458 9.8166 21.6833C10.2542 22.1209 10.5 22.7144 10.5 23.3333H8.16669ZM19.8334 23.3333H17.5C17.5 22.7144 17.7459 22.1209 18.1834 21.6833C18.621 21.2458 19.2145 20.9999 19.8334 20.9999V23.3333ZM19.8334 18.6666C18.5957 18.6666 17.4087 19.1583 16.5335 20.0334C15.6584 20.9086 15.1667 22.0956 15.1667 23.3333H12.8334C12.8334 22.0956 12.3417 20.9086 11.4665 20.0334C10.5913 19.1583 9.40436 18.6666 8.16669 18.6666V9.33325H19.8334V18.6666ZM24.5 11.6666H22.1667V8.16659C22.1667 7.85717 22.0438 7.56042 21.825 7.34163C21.6062 7.12284 21.3094 6.99992 21 6.99992H7.00002C6.6906 6.99992 6.39386 7.12284 6.17506 7.34163C5.95627 7.56042 5.83335 7.85717 5.83335 8.16659V11.6666H3.50002V4.66659H24.5V11.6666ZM14 17.4999C14.6923 17.4999 15.3689 17.2946 15.9445 16.9101C16.5201 16.5255 16.9687 15.9789 17.2336 15.3393C17.4985 14.6998 17.5678 13.996 17.4328 13.3171C17.2977 12.6382 16.9644 12.0145 16.4749 11.525C15.9854 11.0356 15.3618 10.7022 14.6828 10.5672C14.0039 10.4321 13.3002 10.5014 12.6606 10.7663C12.0211 11.0312 11.4745 11.4799 11.0899 12.0554C10.7053 12.631 10.5 13.3077 10.5 13.9999C10.5 14.9282 10.8688 15.8184 11.5251 16.4748C12.1815 17.1312 13.0718 17.4999 14 17.4999ZM14 12.8333C14.2308 12.8333 14.4563 12.9017 14.6482 13.0299C14.84 13.1581 14.9896 13.3403 15.0779 13.5535C15.1662 13.7666 15.1893 14.0012 15.1443 14.2275C15.0993 14.4538 14.9881 14.6617 14.825 14.8249C14.6618 14.988 14.4539 15.0992 14.2276 15.1442C14.0013 15.1892 13.7667 15.1661 13.5536 15.0778C13.3404 14.9895 13.1582 14.8399 13.03 14.6481C12.9018 14.4562 12.8334 14.2307 12.8334 13.9999C12.8334 13.6905 12.9563 13.3938 13.1751 13.175C13.3939 12.9562 13.6906 12.8333 14 12.8333Z" fill="#242424" fill-opacity="0.75"/>
</svg>
