<svg width="28" height="28" viewBox="0 0 28 28" fill="none" xmlns="http://www.w3.org/2000/svg">
<path d="M10.5 11.6666C10.1906 11.6666 9.89382 11.7895 9.67502 12.0083C9.45623 12.2271 9.33331 12.5238 9.33331 12.8333V15.1666C9.33331 15.476 9.45623 15.7728 9.67502 15.9915C9.89382 16.2103 10.1906 16.3333 10.5 16.3333C10.8094 16.3333 11.1061 16.2103 11.3249 15.9915C11.5437 15.7728 11.6666 15.476 11.6666 15.1666V12.8333C11.6666 12.5238 11.5437 12.2271 11.3249 12.0083C11.1061 11.7895 10.8094 11.6666 10.5 11.6666ZM24.5 12.8333C24.8094 12.8333 25.1061 12.7103 25.3249 12.4915C25.5437 12.2728 25.6666 11.976 25.6666 11.6666V6.99992C25.6666 6.6905 25.5437 6.39375 25.3249 6.17496C25.1061 5.95617 24.8094 5.83325 24.5 5.83325H3.49998C3.19056 5.83325 2.89381 5.95617 2.67502 6.17496C2.45623 6.39375 2.33331 6.6905 2.33331 6.99992V11.6666C2.33331 11.976 2.45623 12.2728 2.67502 12.4915C2.89381 12.7103 3.19056 12.8333 3.49998 12.8333C3.8094 12.8333 4.10615 12.9562 4.32494 13.175C4.54373 13.3938 4.66665 13.6905 4.66665 13.9999C4.66665 14.3093 4.54373 14.6061 4.32494 14.8249C4.10615 15.0437 3.8094 15.1666 3.49998 15.1666C3.19056 15.1666 2.89381 15.2895 2.67502 15.5083C2.45623 15.7271 2.33331 16.0238 2.33331 16.3333V20.9999C2.33331 21.3093 2.45623 21.6061 2.67502 21.8249C2.89381 22.0437 3.19056 22.1666 3.49998 22.1666H24.5C24.8094 22.1666 25.1061 22.0437 25.3249 21.8249C25.5437 21.6061 25.6666 21.3093 25.6666 20.9999V16.3333C25.6666 16.0238 25.5437 15.7271 25.3249 15.5083C25.1061 15.2895 24.8094 15.1666 24.5 15.1666C24.1906 15.1666 23.8938 15.0437 23.675 14.8249C23.4562 14.6061 23.3333 14.3093 23.3333 13.9999C23.3333 13.6905 23.4562 13.3938 23.675 13.175C23.8938 12.9562 24.1906 12.8333 24.5 12.8333ZM23.3333 10.7099C22.6576 10.9552 22.0739 11.4025 21.6613 11.9911C21.2487 12.5797 21.0274 13.2811 21.0274 13.9999C21.0274 14.7187 21.2487 15.4201 21.6613 16.0087C22.0739 16.5974 22.6576 17.0447 23.3333 17.2899V19.8333H11.6666C11.6666 19.5238 11.5437 19.2271 11.3249 19.0083C11.1061 18.7895 10.8094 18.6666 10.5 18.6666C10.1906 18.6666 9.89382 18.7895 9.67502 19.0083C9.45623 19.2271 9.33331 19.5238 9.33331 19.8333H4.66665V17.2899C5.34232 17.0447 5.92611 16.5974 6.33866 16.0087C6.75122 15.4201 6.97254 14.7187 6.97254 13.9999C6.97254 13.2811 6.75122 12.5797 6.33866 11.9911C5.92611 11.4025 5.34232 10.9552 4.66665 10.7099V8.16659H9.33331C9.33331 8.47601 9.45623 8.77275 9.67502 8.99154C9.89382 9.21034 10.1906 9.33325 10.5 9.33325C10.8094 9.33325 11.1061 9.21034 11.3249 8.99154C11.5437 8.77275 11.6666 8.47601 11.6666 8.16659H23.3333V10.7099Z" fill="#242424" fill-opacity="0.75"/>
</svg>
