<svg width="22" height="22" viewBox="0 0 22 22" fill="none" xmlns="http://www.w3.org/2000/svg">
<path d="M6.33333 19.1667C5.40508 19.1667 4.51484 18.7979 3.85846 18.1415C3.20208 17.4852 2.83333 16.5949 2.83333 15.6667V6.33333C2.83333 5.40508 3.20208 4.51484 3.85846 3.85846C4.51484 3.20208 5.40508 2.83333 6.33333 2.83333C6.64275 2.83333 6.9395 2.71042 7.15829 2.49162C7.37708 2.27283 7.5 1.97609 7.5 1.66667C7.5 1.35725 7.37708 1.0605 7.15829 0.841709C6.9395 0.622916 6.64275 0.5 6.33333 0.5C4.78624 0.5 3.30251 1.11458 2.20854 2.20854C1.11458 3.30251 0.5 4.78624 0.5 6.33333V15.6667C0.5 17.2138 1.11458 18.6975 2.20854 19.7915C3.30251 20.8854 4.78624 21.5 6.33333 21.5C6.64275 21.5 6.9395 21.3771 7.15829 21.1583C7.37708 20.9395 7.5 20.6428 7.5 20.3333C7.5 20.0239 7.37708 19.7272 7.15829 19.5084C6.9395 19.2896 6.64275 19.1667 6.33333 19.1667ZM15.3283 15.3283C15.4377 15.2199 15.5245 15.0908 15.5837 14.9487C15.6429 14.8065 15.6734 14.654 15.6734 14.5C15.6734 14.346 15.6429 14.1935 15.5837 14.0513C15.5245 13.9092 15.4377 13.7801 15.3283 13.6717L12.645 11L15.3283 8.32833C15.548 8.10865 15.6714 7.81069 15.6714 7.5C15.6714 7.18931 15.548 6.89135 15.3283 6.67167C15.1086 6.45198 14.8107 6.32856 14.5 6.32856C14.1893 6.32856 13.8914 6.45198 13.6717 6.67167L11 9.355L8.32833 6.67167C8.10865 6.45198 7.81069 6.32856 7.5 6.32856C7.18931 6.32856 6.89135 6.45198 6.67167 6.67167C6.45198 6.89135 6.32856 7.18931 6.32856 7.5C6.32856 7.81069 6.45198 8.10865 6.67167 8.32833L9.355 11L6.67167 13.6717C6.56232 13.7801 6.47552 13.9092 6.41629 14.0513C6.35706 14.1935 6.32657 14.346 6.32657 14.5C6.32657 14.654 6.35706 14.8065 6.41629 14.9487C6.47552 15.0908 6.56232 15.2199 6.67167 15.3283C6.78012 15.4377 6.90916 15.5245 7.05133 15.5837C7.1935 15.6429 7.34599 15.6734 7.5 15.6734C7.65401 15.6734 7.8065 15.6429 7.94867 15.5837C8.09084 15.5245 8.21988 15.4377 8.32833 15.3283L11 12.645L13.6717 15.3283C13.7801 15.4377 13.9092 15.5245 14.0513 15.5837C14.1935 15.6429 14.346 15.6734 14.5 15.6734C14.654 15.6734 14.8065 15.6429 14.9487 15.5837C15.0908 15.5245 15.2199 15.4377 15.3283 15.3283ZM15.6667 0.5C15.3572 0.5 15.0605 0.622916 14.8417 0.841709C14.6229 1.0605 14.5 1.35725 14.5 1.66667C14.5 1.97609 14.6229 2.27283 14.8417 2.49162C15.0605 2.71042 15.3572 2.83333 15.6667 2.83333C16.5949 2.83333 17.4852 3.20208 18.1415 3.85846C18.7979 4.51484 19.1667 5.40508 19.1667 6.33333V15.6667C19.1667 16.5949 18.7979 17.4852 18.1415 18.1415C17.4852 18.7979 16.5949 19.1667 15.6667 19.1667C15.3572 19.1667 15.0605 19.2896 14.8417 19.5084C14.6229 19.7272 14.5 20.0239 14.5 20.3333C14.5 20.6428 14.6229 20.9395 14.8417 21.1583C15.0605 21.3771 15.3572 21.5 15.6667 21.5C17.2138 21.5 18.6975 20.8854 19.7915 19.7915C20.8854 18.6975 21.5 17.2138 21.5 15.6667V6.33333C21.5 4.78624 20.8854 3.30251 19.7915 2.20854C18.6975 1.11458 17.2138 0.5 15.6667 0.5Z" fill="#242424" fill-opacity="0.75"/>
</svg>
