<svg width="28" height="28" viewBox="0 0 28 28" fill="none" xmlns="http://www.w3.org/2000/svg">
<path d="M23.3333 9.33328L16.3333 3.19661C15.6916 2.62267 14.8609 2.30536 14 2.30536C13.1391 2.30536 12.3083 2.62267 11.6667 3.19661L4.66665 9.33328C4.29608 9.6647 4.00037 10.0713 3.79921 10.5259C3.59804 10.9805 3.49604 11.4728 3.49999 11.9699V22.1666C3.49999 23.0949 3.86874 23.9851 4.52511 24.6415C5.18149 25.2979 6.07173 25.6666 6.99999 25.6666H21C21.9282 25.6666 22.8185 25.2979 23.4749 24.6415C24.1312 23.9851 24.5 23.0949 24.5 22.1666V11.9583C24.5023 11.4631 24.3995 10.9731 24.1984 10.5206C23.9973 10.0681 23.7024 9.66339 23.3333 9.33328ZM16.3333 23.3333H11.6667V17.4999C11.6667 17.1905 11.7896 16.8938 12.0084 16.675C12.2272 16.4562 12.5239 16.3333 12.8333 16.3333H15.1667C15.4761 16.3333 15.7728 16.4562 15.9916 16.675C16.2104 16.8938 16.3333 17.1905 16.3333 17.4999V23.3333ZM22.1667 22.1666C22.1667 22.476 22.0437 22.7728 21.8249 22.9916C21.6062 23.2104 21.3094 23.3333 21 23.3333H18.6667V17.4999C18.6667 16.5717 18.2979 15.6814 17.6415 15.0251C16.9851 14.3687 16.0949 13.9999 15.1667 13.9999H12.8333C11.9051 13.9999 11.0148 14.3687 10.3584 15.0251C9.70207 15.6814 9.33332 16.5717 9.33332 17.4999V23.3333H6.99999C6.69057 23.3333 6.39382 23.2104 6.17503 22.9916C5.95624 22.7728 5.83332 22.476 5.83332 22.1666V11.9583C5.83353 11.7926 5.86901 11.6289 5.93741 11.4781C6.0058 11.3272 6.10554 11.1926 6.22999 11.0833L13.23 4.95828C13.4429 4.77124 13.7166 4.66809 14 4.66809C14.2834 4.66809 14.5571 4.77124 14.77 4.95828L21.77 11.0833C21.8944 11.1926 21.9942 11.3272 22.0626 11.4781C22.131 11.6289 22.1664 11.7926 22.1667 11.9583V22.1666Z" fill="white"/>
</svg>
