<svg width="28" height="28" viewBox="0 0 28 28" fill="none" xmlns="http://www.w3.org/2000/svg">
<path d="M19.9383 3.29012C18.8654 2.40764 17.6089 1.77582 16.2606 1.44077C14.9123 1.10572 13.5063 1.07589 12.145 1.35345C10.3325 1.71958 8.6695 2.61587 7.36714 3.92861C6.06479 5.24136 5.18173 6.91138 4.83001 8.72679C4.57317 10.088 4.61984 11.489 4.9667 12.8301C5.31356 14.1712 5.95207 15.4192 6.83668 16.4851C7.65765 17.4115 8.12822 18.5962 8.16668 19.8335V23.3335C8.16668 24.2617 8.53543 25.152 9.19181 25.8083C9.84818 26.4647 10.7384 26.8335 11.6667 26.8335H16.3333C17.2616 26.8335 18.1518 26.4647 18.8082 25.8083C19.4646 25.152 19.8333 24.2617 19.8333 23.3335V20.0551C19.8725 18.6891 20.3743 17.377 21.2567 16.3335C22.8027 14.421 23.5314 11.9757 23.2845 9.52902C23.0377 7.08229 21.8352 4.83186 19.9383 3.26679V3.29012ZM17.5 23.3335C17.5 23.6429 17.3771 23.9396 17.1583 24.1584C16.9395 24.3772 16.6428 24.5001 16.3333 24.5001H11.6667C11.3573 24.5001 11.0605 24.3772 10.8417 24.1584C10.6229 23.9396 10.5 23.6429 10.5 23.3335V22.1668H17.5V23.3335ZM19.4483 14.8868C18.2753 16.2782 17.5909 18.0158 17.5 19.8335H15.1667V16.3335C15.1667 16.024 15.0438 15.7273 14.825 15.5085C14.6062 15.2897 14.3094 15.1668 14 15.1668C13.6906 15.1668 13.3938 15.2897 13.1751 15.5085C12.9563 15.7273 12.8333 16.024 12.8333 16.3335V19.8335H10.5C10.4692 18.0462 9.80812 16.3273 8.63335 14.9801C7.85826 14.0515 7.33705 12.9378 7.12054 11.7477C6.90403 10.5576 6.99961 9.33172 7.39795 8.18957C7.79629 7.04742 8.48381 6.02799 9.39346 5.23067C10.3031 4.43335 11.4038 3.88535 12.5883 3.64012C13.6063 3.43052 14.6582 3.45024 15.6676 3.69783C16.677 3.94543 17.6186 4.4147 18.4241 5.07157C19.2295 5.72843 19.8786 6.55641 20.3241 7.49539C20.7697 8.43437 21.0006 9.46079 21 10.5001C21.0086 12.0983 20.46 13.6495 19.4483 14.8868Z" fill="#242424" fill-opacity="0.75"/>
</svg>
