<svg width="28" height="28" viewBox="0 0 28 28" fill="none" xmlns="http://www.w3.org/2000/svg">
<path d="M4.32828 19.005C4.21732 18.8988 4.08649 18.8155 3.94328 18.76C3.65924 18.6433 3.34065 18.6433 3.05661 18.76C2.9134 18.8155 2.78257 18.8988 2.67161 19.005C2.5654 19.116 2.48214 19.2468 2.42661 19.39C2.33727 19.6025 2.31286 19.8366 2.35646 20.063C2.40007 20.2893 2.50973 20.4976 2.67161 20.6617C2.78501 20.7647 2.91523 20.8476 3.05661 20.9067C3.19626 20.9684 3.34726 21.0003 3.49995 21.0003C3.65263 21.0003 3.80363 20.9684 3.94328 20.9067C4.08466 20.8476 4.21488 20.7647 4.32828 20.6617C4.49016 20.4976 4.59983 20.2893 4.64343 20.063C4.68703 19.8366 4.66262 19.6025 4.57328 19.39C4.51775 19.2468 4.43449 19.116 4.32828 19.005ZM8.16661 9.33333H24.4999C24.8094 9.33333 25.1061 9.21042 25.3249 8.99162C25.5437 8.77283 25.6666 8.47609 25.6666 8.16667C25.6666 7.85725 25.5437 7.5605 25.3249 7.34171C25.1061 7.12292 24.8094 7 24.4999 7H8.16661C7.85719 7 7.56045 7.12292 7.34166 7.34171C7.12286 7.5605 6.99995 7.85725 6.99995 8.16667C6.99995 8.47609 7.12286 8.77283 7.34166 8.99162C7.56045 9.21042 7.85719 9.33333 8.16661 9.33333ZM4.32828 13.1717C4.16422 13.0098 3.95588 12.9001 3.72956 12.8565C3.50324 12.8129 3.26908 12.8373 3.05661 12.9267C2.91523 12.9857 2.78501 13.0686 2.67161 13.1717C2.5654 13.2826 2.48214 13.4135 2.42661 13.5567C2.36489 13.6963 2.33301 13.8473 2.33301 14C2.33301 14.1527 2.36489 14.3037 2.42661 14.4433C2.48569 14.5847 2.56856 14.7149 2.67161 14.8283C2.78501 14.9314 2.91523 15.0143 3.05661 15.0733C3.19626 15.1351 3.34726 15.1669 3.49995 15.1669C3.65263 15.1669 3.80363 15.1351 3.94328 15.0733C4.08466 15.0143 4.21488 14.9314 4.32828 14.8283C4.43133 14.7149 4.5142 14.5847 4.57328 14.4433C4.635 14.3037 4.66688 14.1527 4.66688 14C4.66688 13.8473 4.635 13.6963 4.57328 13.5567C4.51775 13.4135 4.43449 13.2826 4.32828 13.1717ZM24.4999 12.8333H8.16661C7.85719 12.8333 7.56045 12.9563 7.34166 13.175C7.12286 13.3938 6.99995 13.6906 6.99995 14C6.99995 14.3094 7.12286 14.6062 7.34166 14.825C7.56045 15.0438 7.85719 15.1667 8.16661 15.1667H24.4999C24.8094 15.1667 25.1061 15.0438 25.3249 14.825C25.5437 14.6062 25.6666 14.3094 25.6666 14C25.6666 13.6906 25.5437 13.3938 25.3249 13.175C25.1061 12.9563 24.8094 12.8333 24.4999 12.8333ZM4.32828 7.33833C4.21732 7.23212 4.08649 7.14886 3.94328 7.09333C3.73082 7.00399 3.49665 6.97958 3.27033 7.02318C3.04401 7.06679 2.83567 7.17645 2.67161 7.33833C2.56856 7.45173 2.48569 7.58195 2.42661 7.72333C2.36489 7.86298 2.33301 8.01398 2.33301 8.16667C2.33301 8.31935 2.36489 8.47035 2.42661 8.61C2.48569 8.75138 2.56856 8.8816 2.67161 8.995C2.78501 9.09805 2.91523 9.18092 3.05661 9.24C3.26908 9.32934 3.50324 9.35375 3.72956 9.31015C3.95588 9.26655 4.16422 9.15688 4.32828 8.995C4.43133 8.8816 4.5142 8.75138 4.57328 8.61C4.635 8.47035 4.66688 8.31935 4.66688 8.16667C4.66688 8.01398 4.635 7.86298 4.57328 7.72333C4.5142 7.58195 4.43133 7.45173 4.32828 7.33833ZM24.4999 18.6667H8.16661C7.85719 18.6667 7.56045 18.7896 7.34166 19.0084C7.12286 19.2272 6.99995 19.5239 6.99995 19.8333C6.99995 20.1428 7.12286 20.4395 7.34166 20.6583C7.56045 20.8771 7.85719 21 8.16661 21H24.4999C24.8094 21 25.1061 20.8771 25.3249 20.6583C25.5437 20.4395 25.6666 20.1428 25.6666 19.8333C25.6666 19.5239 25.5437 19.2272 25.3249 19.0084C25.1061 18.7896 24.8094 18.6667 24.4999 18.6667Z" fill="#242424" fill-opacity="0.75"/>
</svg>
