<svg width="29" height="28" viewBox="0 0 29 28" fill="none" xmlns="http://www.w3.org/2000/svg">
<path d="M21.5 2.33334H7.5C6.57174 2.33334 5.6815 2.70209 5.02513 3.35847C4.36875 4.01485 4 4.90509 4 5.83334V18.6667C4 19.5949 4.36875 20.4852 5.02513 21.1416C5.6815 21.7979 6.57174 22.1667 7.5 22.1667H10.5217L13.6717 25.3283C13.7807 25.4365 13.91 25.522 14.0521 25.5801C14.1943 25.6381 14.3465 25.6676 14.5 25.6667C14.7781 25.6667 15.047 25.5674 15.2583 25.3867L19.015 22.1667H21.5C22.4283 22.1667 23.3185 21.7979 23.9749 21.1416C24.6313 20.4852 25 19.5949 25 18.6667V5.83334C25 4.90509 24.6313 4.01485 23.9749 3.35847C23.3185 2.70209 22.4283 2.33334 21.5 2.33334ZM22.6667 18.6667C22.6667 18.9761 22.5438 19.2728 22.325 19.4916C22.1062 19.7104 21.8094 19.8333 21.5 19.8333H18.5833C18.3053 19.8333 18.0363 19.9326 17.825 20.1133L14.5583 22.9133L11.8283 20.1717C11.7193 20.0635 11.59 19.978 11.4479 19.9199C11.3057 19.8619 11.1535 19.8325 11 19.8333H7.5C7.19058 19.8333 6.89383 19.7104 6.67504 19.4916C6.45625 19.2728 6.33333 18.9761 6.33333 18.6667V5.83334C6.33333 5.52392 6.45625 5.22718 6.67504 5.00839C6.89383 4.78959 7.19058 4.66668 7.5 4.66668H21.5C21.8094 4.66668 22.1062 4.78959 22.325 5.00839C22.5438 5.22718 22.6667 5.52392 22.6667 5.83334V18.6667Z" fill="#868687"/>
</svg>
