<svg width="20" height="12" viewBox="0 0 20 12" fill="none" xmlns="http://www.w3.org/2000/svg">
<path d="M4.28994 8.29L3.99994 8.59V1C3.99994 0.734784 3.89458 0.48043 3.70705 0.292893C3.51951 0.105357 3.26516 0 2.99994 0C2.73472 0 2.48037 0.105357 2.29283 0.292893C2.1053 0.48043 1.99994 0.734784 1.99994 1V8.59L1.70994 8.29C1.52164 8.1017 1.26624 7.99591 0.999941 7.99591C0.73364 7.99591 0.478245 8.1017 0.289941 8.29C0.101637 8.4783 -0.00415039 8.7337 -0.00415039 9C-0.00415039 9.2663 0.101637 9.5217 0.289941 9.71L2.28994 11.71C2.38505 11.801 2.49719 11.8724 2.61994 11.92C2.73964 11.9729 2.86907 12.0002 2.99994 12.0002C3.13081 12.0002 3.26024 11.9729 3.37994 11.92C3.50269 11.8724 3.61484 11.801 3.70994 11.71L5.70994 9.71C5.80318 9.61676 5.87714 9.50607 5.9276 9.38425C5.97806 9.26243 6.00403 9.13186 6.00403 9C6.00403 8.86814 5.97806 8.73757 5.9276 8.61575C5.87714 8.49393 5.80318 8.38324 5.70994 8.29C5.6167 8.19676 5.50601 8.1228 5.38419 8.07234C5.26237 8.02188 5.1318 7.99591 4.99994 7.99591C4.86808 7.99591 4.73751 8.02188 4.61569 8.07234C4.49387 8.1228 4.38318 8.19676 4.28994 8.29ZM8.99994 2H18.9999C19.2652 2 19.5195 1.89464 19.707 1.70711C19.8946 1.51957 19.9999 1.26522 19.9999 1C19.9999 0.734784 19.8946 0.48043 19.707 0.292893C19.5195 0.105357 19.2652 0 18.9999 0H8.99994C8.73472 0 8.48037 0.105357 8.29283 0.292893C8.1053 0.48043 7.99994 0.734784 7.99994 1C7.99994 1.26522 8.1053 1.51957 8.29283 1.70711C8.48037 1.89464 8.73472 2 8.99994 2ZM18.9999 5H8.99994C8.73472 5 8.48037 5.10536 8.29283 5.29289C8.1053 5.48043 7.99994 5.73478 7.99994 6C7.99994 6.26522 8.1053 6.51957 8.29283 6.70711C8.48037 6.89464 8.73472 7 8.99994 7H18.9999C19.2652 7 19.5195 6.89464 19.707 6.70711C19.8946 6.51957 19.9999 6.26522 19.9999 6C19.9999 5.73478 19.8946 5.48043 19.707 5.29289C19.5195 5.10536 19.2652 5 18.9999 5ZM18.9999 10H8.99994C8.73472 10 8.48037 10.1054 8.29283 10.2929C8.1053 10.4804 7.99994 10.7348 7.99994 11C7.99994 11.2652 8.1053 11.5196 8.29283 11.7071C8.48037 11.8946 8.73472 12 8.99994 12H18.9999C19.2652 12 19.5195 11.8946 19.707 11.7071C19.8946 11.5196 19.9999 11.2652 19.9999 11C19.9999 10.7348 19.8946 10.4804 19.707 10.2929C19.5195 10.1054 19.2652 10 18.9999 10Z" fill="#3E3E40"/>
</svg>
