<svg width="28" height="28" viewBox="0 0 28 28" fill="none" xmlns="http://www.w3.org/2000/svg">
<path d="M22.5 16.3334H18.3333C17.2287 16.3334 16.3333 17.2288 16.3333 18.3334V22.5C16.3333 23.6046 17.2287 24.5 18.3333 24.5H22.5C23.6046 24.5 24.5 23.6046 24.5 22.5V18.3334C24.5 17.2288 23.6046 16.3334 22.5 16.3334Z" stroke="#242424" stroke-opacity="0.75" stroke-width="2.5" stroke-linecap="round" stroke-linejoin="round"/>
<path d="M9.66667 16.3334H5.5C4.39543 16.3334 3.5 17.2288 3.5 18.3334V22.5C3.5 23.6046 4.39543 24.5 5.5 24.5H9.66667C10.7712 24.5 11.6667 23.6046 11.6667 22.5V18.3334C11.6667 17.2288 10.7712 16.3334 9.66667 16.3334Z" stroke="#242424" stroke-opacity="0.75" stroke-width="2.5" stroke-linecap="round" stroke-linejoin="round"/>
<path d="M22.5 3.5H18.3333C17.2287 3.5 16.3333 4.39543 16.3333 5.5V9.66667C16.3333 10.7712 17.2287 11.6667 18.3333 11.6667H22.5C23.6046 11.6667 24.5 10.7712 24.5 9.66667V5.5C24.5 4.39543 23.6046 3.5 22.5 3.5Z" stroke="#242424" stroke-opacity="0.75" stroke-width="2.5" stroke-linecap="round" stroke-linejoin="round"/>
<path d="M9.66667 3.5H5.5C4.39543 3.5 3.5 4.39543 3.5 5.5V9.66667C3.5 10.7712 4.39543 11.6667 5.5 11.6667H9.66667C10.7712 11.6667 11.6667 10.7712 11.6667 9.66667V5.5C11.6667 4.39543 10.7712 3.5 9.66667 3.5Z" stroke="#242424" stroke-opacity="0.75" stroke-width="2.5" stroke-linecap="round" stroke-linejoin="round"/>
</svg>
