<svg width="20" height="20" viewBox="0 0 20 20" fill="none" xmlns="http://www.w3.org/2000/svg">
<path d="M18.9088 17.5479L15.3534 14.0213C16.7335 12.3005 17.4018 10.1164 17.221 7.91794C17.0401 5.71953 16.0239 3.67395 14.3812 2.20181C12.7384 0.729681 10.5941 -0.0571066 8.38908 0.00323051C6.18407 0.0635676 4.08597 0.966443 2.52621 2.52621C0.966443 4.08597 0.0635676 6.18407 0.00323051 8.38908C-0.0571065 10.5941 0.729681 12.7384 2.20181 14.3812C3.67395 16.0239 5.71953 17.0401 7.91794 17.221C10.1164 17.4018 12.3005 16.7335 14.0213 15.3534L17.5479 18.88C17.637 18.9699 17.743 19.0411 17.8598 19.0898C17.9766 19.1385 18.1019 19.1635 18.2284 19.1635C18.3549 19.1635 18.4801 19.1385 18.5969 19.0898C18.7137 19.0411 18.8197 18.9699 18.9088 18.88C19.0815 18.7013 19.1781 18.4625 19.1781 18.214C19.1781 17.9655 19.0815 17.7266 18.9088 17.5479ZM8.64503 15.3534C7.31825 15.3534 6.02126 14.9599 4.91808 14.2228C3.8149 13.4857 2.95508 12.438 2.44734 11.2122C1.9396 9.98641 1.80675 8.63759 2.06559 7.3363C2.32444 6.03501 2.96334 4.8397 3.90152 3.90152C4.8397 2.96334 6.03501 2.32444 7.3363 2.06559C8.63759 1.80675 9.98641 1.9396 11.2122 2.44734C12.438 2.95508 13.4857 3.8149 14.2228 4.91808C14.9599 6.02126 15.3534 7.31825 15.3534 8.64503C15.3534 10.4242 14.6466 12.1305 13.3885 13.3885C12.1305 14.6466 10.4242 15.3534 8.64503 15.3534Z" fill="black" fill-opacity="0.25"/>
</svg>
