<svg width="28" height="28" viewBox="0 0 28 28" fill="none" xmlns="http://www.w3.org/2000/svg">
<path d="M23.3333 9.54338V3.50004C23.3333 3.19062 23.2104 2.89388 22.9916 2.67508C22.7728 2.45629 22.476 2.33337 22.1666 2.33337C21.8572 2.33337 21.5604 2.45629 21.3416 2.67508C21.1229 2.89388 20.9999 3.19062 20.9999 3.50004V9.54338C20.3243 9.78861 19.7405 10.2359 19.3279 10.8246C18.9154 11.4132 18.694 12.1146 18.694 12.8334C18.694 13.5522 18.9154 14.2536 19.3279 14.8422C19.7405 15.4308 20.3243 15.8781 20.9999 16.1234V24.5C20.9999 24.8095 21.1229 25.1062 21.3416 25.325C21.5604 25.5438 21.8572 25.6667 22.1666 25.6667C22.476 25.6667 22.7728 25.5438 22.9916 25.325C23.2104 25.1062 23.3333 24.8095 23.3333 24.5V16.1234C24.009 15.8781 24.5927 15.4308 25.0053 14.8422C25.4178 14.2536 25.6392 13.5522 25.6392 12.8334C25.6392 12.1146 25.4178 11.4132 25.0053 10.8246C24.5927 10.2359 24.009 9.78861 23.3333 9.54338ZM22.1666 14C21.9359 14 21.7103 13.9316 21.5184 13.8034C21.3266 13.6752 21.177 13.493 21.0887 13.2798C21.0004 13.0667 20.9773 12.8321 21.0224 12.6058C21.0674 12.3795 21.1785 12.1716 21.3416 12.0084C21.5048 11.8453 21.7127 11.7341 21.939 11.6891C22.1653 11.6441 22.3999 11.6672 22.6131 11.7555C22.8263 11.8438 23.0085 11.9934 23.1367 12.1852C23.2649 12.3771 23.3333 12.6026 23.3333 12.8334C23.3333 13.1428 23.2104 13.4395 22.9916 13.6583C22.7728 13.8771 22.476 14 22.1666 14ZM15.1666 16.5434V3.50004C15.1666 3.19062 15.0437 2.89388 14.8249 2.67508C14.6061 2.45629 14.3094 2.33337 13.9999 2.33337C13.6905 2.33337 13.3938 2.45629 13.175 2.67508C12.9562 2.89388 12.8333 3.19062 12.8333 3.50004V16.5434C12.1576 16.7886 11.5738 17.2359 11.1613 17.8246C10.7487 18.4132 10.5274 19.1146 10.5274 19.8334C10.5274 20.5522 10.7487 21.2536 11.1613 21.8422C11.5738 22.4308 12.1576 22.8781 12.8333 23.1234V24.5C12.8333 24.8095 12.9562 25.1062 13.175 25.325C13.3938 25.5438 13.6905 25.6667 13.9999 25.6667C14.3094 25.6667 14.6061 25.5438 14.8249 25.325C15.0437 25.1062 15.1666 24.8095 15.1666 24.5V23.1234C15.8423 22.8781 16.4261 22.4308 16.8386 21.8422C17.2512 21.2536 17.4725 20.5522 17.4725 19.8334C17.4725 19.1146 17.2512 18.4132 16.8386 17.8246C16.4261 17.2359 15.8423 16.7886 15.1666 16.5434ZM13.9999 21C13.7692 21 13.5436 20.9316 13.3518 20.8034C13.1599 20.6752 13.0104 20.493 12.9221 20.2798C12.8338 20.0667 12.8107 19.8321 12.8557 19.6058C12.9007 19.3795 13.0118 19.1716 13.175 19.0084C13.3381 18.8453 13.546 18.7341 13.7723 18.6891C13.9986 18.6441 14.2332 18.6672 14.4464 18.7555C14.6596 18.8438 14.8418 18.9934 14.97 19.1852C15.0982 19.3771 15.1666 19.6026 15.1666 19.8334C15.1666 20.1428 15.0437 20.4395 14.8249 20.6583C14.6061 20.8771 14.3094 21 13.9999 21ZM6.99994 7.21004V3.50004C6.99994 3.19062 6.87702 2.89388 6.65823 2.67508C6.43944 2.45629 6.14269 2.33337 5.83327 2.33337C5.52385 2.33337 5.22711 2.45629 5.00832 2.67508C4.78952 2.89388 4.66661 3.19062 4.66661 3.50004V7.21004C3.99093 7.45528 3.40714 7.90261 2.99459 8.49123C2.58203 9.07986 2.36072 9.78124 2.36072 10.5C2.36072 11.2188 2.58203 11.9202 2.99459 12.5088C3.40714 13.0975 3.99093 13.5448 4.66661 13.79V24.5C4.66661 24.8095 4.78952 25.1062 5.00832 25.325C5.22711 25.5438 5.52385 25.6667 5.83327 25.6667C6.14269 25.6667 6.43944 25.5438 6.65823 25.325C6.87702 25.1062 6.99994 24.8095 6.99994 24.5V13.79C7.67562 13.5448 8.2594 13.0975 8.67196 12.5088C9.08451 11.9202 9.30583 11.2188 9.30583 10.5C9.30583 9.78124 9.08451 9.07986 8.67196 8.49123C8.2594 7.90261 7.67562 7.45528 6.99994 7.21004ZM5.83327 11.6667C5.60253 11.6667 5.37697 11.5983 5.18511 11.4701C4.99325 11.3419 4.84372 11.1597 4.75541 10.9465C4.66711 10.7333 4.64401 10.4987 4.68902 10.2724C4.73404 10.0461 4.84515 9.83824 5.00832 9.67508C5.17148 9.51192 5.37936 9.40081 5.60567 9.35579C5.83198 9.31078 6.06656 9.33388 6.27974 9.42218C6.49292 9.51048 6.67513 9.66002 6.80332 9.85188C6.93152 10.0437 6.99994 10.2693 6.99994 10.5C6.99994 10.8095 6.87702 11.1062 6.65823 11.325C6.43944 11.5438 6.14269 11.6667 5.83327 11.6667Z" fill="#242424" fill-opacity="0.75"/>
</svg>
