<svg width="28" height="28" viewBox="0 0 28 28" fill="none" xmlns="http://www.w3.org/2000/svg">
<path d="M24.5 18.6667H8.16665C7.85723 18.6667 7.56048 18.5438 7.34169 18.325C7.1229 18.1062 6.99998 17.8095 6.99998 17.5C6.99998 17.1906 7.1229 16.8939 7.34169 16.6751C7.56048 16.4563 7.85723 16.3334 8.16665 16.3334H20.3466C21.1267 16.3334 21.8845 16.0728 22.4996 15.593C23.1147 15.1132 23.5518 14.4417 23.7416 13.685L25.6666 6.11337C25.7103 5.94118 25.7141 5.76129 25.6777 5.58741C25.6413 5.41353 25.5657 5.25025 25.4566 5.11004C25.3432 4.96623 25.1975 4.85115 25.0312 4.77413C24.865 4.69711 24.683 4.66031 24.5 4.66671H7.88665C7.64595 3.9859 7.20056 3.39621 6.61156 2.97847C6.02255 2.56073 5.31875 2.3354 4.59665 2.33337H3.49998C3.19056 2.33337 2.89381 2.45629 2.67502 2.67508C2.45623 2.89388 2.33331 3.19062 2.33331 3.50004C2.33331 3.80946 2.45623 4.10621 2.67502 4.325C2.89381 4.54379 3.19056 4.66671 3.49998 4.66671H4.59665C4.86315 4.65894 5.12428 4.7427 5.33655 4.90402C5.54883 5.06535 5.69944 5.29452 5.76331 5.55337L5.83331 6.11337L7.85165 14C6.92339 14.0418 6.04974 14.4506 5.4229 15.1365C4.79606 15.8225 4.46737 16.7293 4.50915 17.6575C4.55092 18.5858 4.95973 19.4594 5.64564 20.0863C6.33156 20.7131 7.23839 21.0418 8.16665 21H8.37665C8.18477 21.5287 8.12311 22.0958 8.1969 22.6533C8.27068 23.2109 8.47773 23.7424 8.80052 24.203C9.1233 24.6635 9.55231 25.0395 10.0512 25.2991C10.5501 25.5586 11.1042 25.6942 11.6666 25.6942C12.229 25.6942 12.7832 25.5586 13.2821 25.2991C13.781 25.0395 14.21 24.6635 14.5328 24.203C14.8556 23.7424 15.0626 23.2109 15.1364 22.6533C15.2102 22.0958 15.1485 21.5287 14.9566 21H17.71C17.5181 21.5287 17.4564 22.0958 17.5302 22.6533C17.604 23.2109 17.8111 23.7424 18.1338 24.203C18.4566 24.6635 18.8856 25.0395 19.3846 25.2991C19.8835 25.5586 20.4376 25.6942 21 25.6942C21.5624 25.6942 22.1165 25.5586 22.6154 25.2991C23.1143 25.0395 23.5433 24.6635 23.8661 24.203C24.1889 23.7424 24.3959 23.2109 24.4697 22.6533C24.5435 22.0958 24.4819 21.5287 24.29 21H24.5C24.8094 21 25.1061 20.8771 25.3249 20.6583C25.5437 20.4395 25.6666 20.1428 25.6666 19.8334C25.6666 19.524 25.5437 19.2272 25.3249 19.0084C25.1061 18.7896 24.8094 18.6667 24.5 18.6667ZM23.0066 7.00004L21.4783 13.1134C21.4144 13.3722 21.2638 13.6014 21.0515 13.7627C20.8393 13.9241 20.5781 14.0078 20.3116 14H10.2433L8.49331 7.00004H23.0066ZM11.6666 23.3334C11.4359 23.3334 11.2103 23.2649 11.0185 23.1368C10.8266 23.0086 10.6771 22.8264 10.5888 22.6132C10.5005 22.4 10.4774 22.1654 10.5224 21.9391C10.5674 21.7128 10.6785 21.5049 10.8417 21.3417C11.0048 21.1786 11.2127 21.0675 11.439 21.0225C11.6654 20.9774 11.8999 21.0005 12.1131 21.0888C12.3263 21.1771 12.5085 21.3267 12.6367 21.5185C12.7649 21.7104 12.8333 21.936 12.8333 22.1667C12.8333 22.4761 12.7104 22.7729 12.4916 22.9917C12.2728 23.2105 11.9761 23.3334 11.6666 23.3334ZM21 23.3334C20.7692 23.3334 20.5437 23.2649 20.3518 23.1368C20.16 23.0086 20.0104 22.8264 19.9221 22.6132C19.8338 22.4 19.8107 22.1654 19.8557 21.9391C19.9007 21.7128 20.0119 21.5049 20.175 21.3417C20.3382 21.1786 20.5461 21.0675 20.7724 21.0225C20.9987 20.9774 21.2333 21.0005 21.4464 21.0888C21.6596 21.1771 21.8418 21.3267 21.97 21.5185C22.0982 21.7104 22.1666 21.936 22.1666 22.1667C22.1666 22.4761 22.0437 22.7729 21.8249 22.9917C21.6061 23.2105 21.3094 23.3334 21 23.3334Z" fill="#242424" fill-opacity="0.75"/>
</svg>
