<svg width="28" height="28" viewBox="0 0 28 28" fill="none" xmlns="http://www.w3.org/2000/svg">
<path d="M12.0205 22.63C11.5699 22.63 11.1625 22.6127 10.7985 22.578C10.4345 22.5607 10.1225 22.5347 9.86255 22.5V14.024L7.08055 14.986V13.296L9.86255 12.36V10.306L7.08055 11.242V9.552L9.86255 8.616V3.936H12.0985V7.836L17.4545 5.99V7.68L12.0985 9.526V11.58L17.4545 9.734V11.398L12.0985 13.27V20.654C13.6759 20.654 14.9239 20.3333 15.8425 19.692C16.7612 19.0333 17.4199 18.158 17.8185 17.066C18.2172 15.974 18.4165 14.752 18.4165 13.4H20.6525C20.6525 14.596 20.4965 15.7487 20.1845 16.858C19.8899 17.9673 19.3959 18.9553 18.7025 19.822C18.0265 20.6887 17.1425 21.3733 16.0505 21.876C14.9585 22.3787 13.6152 22.63 12.0205 22.63Z" fill="#242424" fill-opacity="0.75"/>
</svg>
